<svg width="551" height="150" viewBox="0 0 551 150" fill="none" xmlns="http://www.w3.org/2000/svg">
<g clip-path="url(#clip0_200_6)">
<path d="M185.85 120.07H169.25V120.25H185.85V120.07Z" fill="#EE3524"/>
<path d="M219.588 120.07H202.988V120.25H219.588V120.07Z" fill="#EE3524"/>
<path d="M269.438 120.25H286.438V120.07H269.448L269.438 120.25Z" fill="#EE3524"/>
<path d="M342.83 120.25H359.83L359.82 120.07H342.82L342.83 120.25Z" fill="#EE3524"/>
<path d="M432.57 120.25H449.97L449.91 120.07H432.52L432.57 120.25Z" fill="#EE3524"/>
<path d="M371.438 120.25H388.827L388.888 120.07H371.497L371.438 120.25Z" fill="#EE3524"/>
<path opacity="0.2" d="M110.5 135.536V135.406C110.37 135.596 110.36 135.656 110.5 135.536Z" fill="#CCD234"/>
<path d="M185.85 32.5078H169.25V120.078H185.85V32.5078Z" fill="#F0494B"/>
<path d="M254.368 85.0778V70.4478H219.588V47.1278H257.268V32.5078H202.988V120.068H219.588V85.0778H254.368Z" fill="#F0494B"/>
<path d="M337.299 32.5078L314.629 94.8278L291.969 32.5078H273.389L269.449 120.068H286.439L287.889 63.4678L304.099 108.918H325.179L341.379 63.4678L342.819 120.068H359.819L355.879 32.5078H337.299Z" fill="#F0494B"/>
<path d="M439.38 90.4478C436.873 89.9823 434.342 89.6485 431.8 89.4478L430.8 89.3778C430.637 89.3678 430.473 89.3678 430.31 89.3778H429.82L427.82 89.3178C427.17 89.3178 426.51 89.3178 425.82 89.3178H423.82L421.82 89.4478L420.82 89.4978H420.32L419.83 89.5578L417.83 89.7678L416.83 89.8678L415.83 90.0178C413.23 90.3778 410.69 90.8578 408.24 91.4178C407.02 91.7278 405.8 91.9778 404.62 92.2978L401.18 93.2978C400.06 93.6278 398.99 94.0078 397.93 94.2978L396.37 94.7878L394.9 95.3278L392.1 96.3278C391.21 96.6578 390.39 97.0078 389.59 97.3278C388.79 97.6478 388.06 97.9178 387.36 98.1678C387.01 98.2878 386.69 98.4378 386.36 98.5678L385.47 98.9378C383.2 99.8678 381.84 100.348 381.84 100.348C381.84 100.348 382.84 99.3478 384.78 97.7678C385.25 97.3678 385.78 96.9178 386.37 96.4678C386.96 96.0178 387.63 95.5478 388.37 95.0378C388.72 94.7778 389.09 94.5178 389.47 94.2578C389.85 93.9978 390.23 93.7078 390.64 93.4378C391.46 92.9178 392.34 92.4378 393.25 91.8278C393.71 91.5378 394.18 91.2678 394.66 90.9778C395.14 90.6878 395.66 90.4478 396.17 90.1778C396.68 89.9078 397.17 89.6578 397.7 89.3878L410.7 46.2078L421.26 82.7578H421.48L423.68 82.6078H425.88C426.62 82.6078 427.35 82.6078 428.08 82.6078C429.55 82.6978 431.01 82.7678 432.44 82.9678C434.502 83.2025 436.546 83.57 438.56 84.0678L422.3 32.5078H399.11L371.5 120.068H388.89L394.36 102.068H426.91L432.52 120.068H449.91L440.65 90.7078L439.38 90.4478Z" fill="#F0494B"/>
<path d="M24.1799 111.358C24.3399 106.448 24.6899 101.528 25.2399 96.7278C25.4733 94.6278 25.7499 92.5311 26.0699 90.4378C24.2033 88.6178 22.4266 86.7611 20.7399 84.8678C19.0899 83.0178 17.5399 81.1378 16.0599 79.2578C15.5299 78.5778 15.0599 77.8978 14.5099 77.2578L14.2999 78.4478C13.5537 83.0051 13.0431 87.5979 12.7699 92.2078C12.5099 96.4678 12.4299 100.658 12.5199 104.648C12.5999 108.228 12.7899 111.784 13.0899 115.318C16.3237 119.958 20.0781 124.212 24.2799 127.998C24.2299 126.838 24.1799 125.678 24.1499 124.508C23.9999 120.138 23.9999 115.718 24.1799 111.358Z" fill="#0E3445"/>
<path d="M11.7108 48.6206C12.1408 49.9706 12.6208 51.3906 13.1708 52.8706C14.1708 50.8706 15.4208 48.5206 16.8008 46.2706C17.3508 45.3406 17.9508 44.4206 18.5408 43.5306C18.7008 43.2706 18.8708 43.0206 19.0308 42.7706C19.1908 42.5206 19.5508 42.0006 19.8108 41.6406C19.9508 41.4506 20.0908 41.2506 20.2208 41.0506L20.6508 40.4606C20.9008 40.0906 21.1708 39.7206 21.4508 39.3606L22.0808 38.5406C22.7008 37.7306 23.3408 36.8906 24.0208 36.1106L24.4708 35.5706C24.7508 35.2206 25.0408 34.8806 25.3408 34.5706L26.7208 33.0006L27.4508 32.2206C26.8908 31.3206 26.3208 30.4506 25.8208 29.5506C25.5608 29.0806 25.2808 28.6106 25.0308 28.1506L24.3008 26.7506C23.4108 25.0056 22.6098 23.2167 21.9008 21.3906C21.8308 21.2206 21.7708 21.0506 21.7108 20.8906C16.7025 25.8656 12.4386 31.5374 9.05078 37.7306C9.21078 38.7306 9.44078 39.9206 9.77078 41.3906C10.2108 43.4006 10.8508 45.8406 11.7108 48.6206Z" fill="#0E3445"/>
<path d="M5.65916 72.6119L6.19916 70.7119L7.08916 67.8419L7.49916 66.6119C6.70583 65.2385 5.95916 63.9052 5.25916 62.6119C3.99916 60.2619 2.99916 58.0019 1.99916 55.9219C-0.687221 67.238 -0.687221 79.0258 1.99916 90.3419C2.64916 85.6919 3.53916 81.0019 4.65916 76.4119L5.65916 72.6119Z" fill="#0E3445"/>
<path d="M57.7092 112.37C53.0404 110.138 48.512 107.623 44.1492 104.84C41.3292 103.01 38.5692 101.06 35.9092 99C35.8392 103.06 35.9092 107.17 36.1092 111.27C36.3092 115.37 36.6592 119.51 37.1092 123.58C37.6892 128.58 38.4592 133.58 39.3992 138.48C46.8638 142.351 54.9558 144.866 63.2992 145.91V114.91C61.4492 114.09 59.5792 113.26 57.7092 112.37Z" fill="#0E3445"/>
<path d="M107.299 125.912C105.759 125.722 104.119 125.532 102.389 125.302L99.7391 124.912L98.3691 124.702C97.8991 124.632 97.4391 124.552 96.9691 124.462L94.0791 123.962C93.0791 123.782 92.0791 123.572 91.0791 123.372L89.5491 123.062L87.9991 122.702C86.9991 122.462 85.8891 122.242 84.8291 121.972C80.5491 120.972 76.0791 119.612 71.5091 118.032L69.7891 117.422V146.422C70.6091 146.422 71.4291 146.422 72.2491 146.422C85.7912 146.438 99.0569 142.591 110.489 135.332V126.192L107.299 125.912Z" fill="#F0494B"/>
<path d="M32.0509 16.1994C32.1609 16.8694 32.2509 17.5694 32.4009 18.2994C32.7001 19.8845 33.0806 21.4533 33.5409 22.9994C33.6609 23.4094 33.7909 23.8294 33.9209 24.2594C34.0509 24.6894 34.2109 25.1094 34.3609 25.5394L34.4209 25.7194C35.8109 24.5794 37.2309 23.4894 38.7009 22.4494C42.7441 19.5931 47.0502 17.1286 51.5609 15.0894C55.5644 13.2895 59.6957 11.7887 63.9209 10.5994C64.5509 10.4194 65.1909 10.2594 65.8009 10.1094L66.8009 9.85937L68.1809 9.49937L72.1809 8.65937C72.7509 8.54937 73.3009 8.45937 73.8309 8.37937L74.6909 8.22937L75.5409 8.08937C76.0609 7.99937 76.5409 7.90937 77.0509 7.84937L79.2309 7.57937L79.9609 7.47937L81.2609 7.32937L84.9009 6.99937C85.3709 6.99937 85.8209 6.90937 86.2509 6.89937L90.4509 6.71937H90.8509L94.5009 8.71937L97.9109 10.7894L100.371 12.4294C100.471 12.5094 100.581 12.5694 100.681 12.6394L101.261 13.0394L104.051 15.0394C106.051 16.5794 108.261 18.3794 110.541 20.4994V11.1194C98.7029 3.61024 84.9182 -0.252157 70.9019 0.0127699C56.8857 0.277697 43.2567 4.65826 31.7109 12.6094C31.7109 13.1294 31.7709 13.6994 31.8409 14.3094C31.9109 14.9194 32.0009 15.5394 32.0509 16.1994Z" fill="#0E3445"/>
<path d="M61.4381 58.6016C60.8081 58.3516 60.1181 58.1116 59.4381 57.8116L57.2281 56.8116C56.8381 56.6416 56.4381 56.4816 56.0481 56.2916L54.8481 55.7116L53.5981 55.1016C53.1781 54.8916 52.7381 54.6816 52.3181 54.4416L49.6781 53.0016L46.9981 51.4016C46.5781 51.1616 46.1881 50.8816 45.7781 50.6016C45.3481 51.5516 44.9281 52.5216 44.5281 53.5016C42.601 58.1783 41.0234 62.9915 39.8081 67.9016C38.5678 72.8129 37.6294 77.7955 36.9981 82.8216C36.7281 84.9816 36.5081 87.1816 36.3281 89.3916L36.7981 89.8716C40.2515 93.3235 43.926 96.547 47.7981 99.5216C51.7236 102.502 55.8316 105.234 60.0981 107.702C61.0981 108.302 62.1881 108.892 63.2481 109.462V59.3116H63.1481L61.4381 58.6016Z" fill="#0E3445"/>
<path d="M40.5186 46.7184L40.2586 46.5084L38.9386 45.3984C38.0686 44.6384 37.2186 43.8484 36.3686 43.0484C34.6953 41.4205 33.1097 39.7048 31.6186 37.9084L31.2186 37.3984L30.3186 38.5484L29.6086 39.5484L29.1986 40.1184C28.6586 40.8584 28.1386 41.6484 27.6486 42.4084L27.0786 43.2784C26.8586 43.6084 26.6486 43.9584 26.4386 44.2784C26.2286 44.5984 26.2086 44.6784 26.0886 44.8784L25.7286 45.4684C25.5186 45.8184 25.3086 46.1584 25.1286 46.4684L24.6786 47.2884C24.2186 48.1184 23.7386 48.9784 23.3286 49.8384C22.0986 52.2084 21.0486 54.6884 20.1786 56.8384C20.0386 57.2084 19.8986 57.5884 19.7486 57.9584C19.4486 58.7584 19.1286 59.5784 18.8586 60.3984L18.2386 62.1984L17.8086 63.5484C18.6019 65.1151 19.4486 66.6951 20.3486 68.2884C21.3486 70.0984 22.5186 71.9084 23.7086 73.7484C24.8986 75.5884 26.1986 77.4084 27.5786 79.2284L28.0386 79.8184C29.1025 75.0035 30.438 70.2525 32.0386 65.5884C33.7742 60.4565 35.8935 55.4624 38.3786 50.6484C39.0719 49.3084 39.7853 47.9984 40.5186 46.7184Z" fill="#0E3445"/>
<path d="M110.537 24.8066L110.137 24.3266C107.805 21.6649 105.314 19.147 102.677 16.7866L100.097 14.5766L99.5773 14.1566L99.2873 13.9266L96.9973 12.1266L93.8073 9.83656L90.5973 7.72656L86.9973 9.29656L83.1373 11.1866L80.9073 12.3866L80.5873 12.5666L79.9973 12.8866L77.0773 14.6266C74.0878 16.5038 71.2127 18.5575 68.4673 20.7766C61.6728 26.3292 55.8412 32.965 51.2073 40.4166C49.9973 42.3366 48.8573 44.3566 47.7773 46.4166L48.4073 47.0466C48.7773 47.4066 49.1273 47.7766 49.5073 48.1066L51.7173 50.1066L53.9373 51.9966C54.2973 52.2966 54.6673 52.5666 55.0373 52.8366L56.1073 53.6366L57.1073 54.4166C57.4573 54.6666 57.8073 54.8866 58.1073 55.1166L60.1073 56.4366C60.7273 56.8566 61.3473 57.2066 61.9173 57.5566L63.2673 58.3766V25.5166L110.537 36.1766V24.8066Z" fill="#0E3445"/>
<path d="M110.541 42.8719L69.8008 34.4219V112.742C70.8808 113.252 71.9508 113.742 73.0208 114.212C77.3208 116.092 81.5708 117.712 85.6708 119.072C86.6708 119.422 87.6708 119.722 88.6708 120.072L90.1608 120.532L91.6408 120.962L94.5308 121.782L97.3308 122.502L98.7008 122.852L100.031 123.162L102.621 123.762C104.311 124.122 105.921 124.442 107.431 124.762L110.431 125.312V42.8719H110.541Z" fill="#F0494B"/>
<path d="M41.2709 38.8031C41.8909 39.6431 42.5209 40.4931 43.1709 41.3131L43.5509 41.7731C44.5509 40.2331 45.6109 38.7731 46.6809 37.3231C49.6066 33.409 52.8618 29.7523 56.4109 26.3931C59.573 23.4099 62.9633 20.6782 66.5509 18.2231L69.0009 16.6031C69.5409 16.2631 70.0709 15.9431 70.5909 15.6031L71.4109 15.1131L71.8209 14.8631L72.5809 14.4231L73.7409 13.7931L74.5309 13.3631C75.0209 13.1031 75.4809 12.8431 75.9509 12.6131L79.0609 11.0931L79.7209 10.8031L80.0609 10.6531L82.7609 9.48312L86.0709 8.20312L85.0709 8.36312L81.5009 9.00313C81.1009 9.07313 80.6909 9.16313 80.2609 9.25313L79.5409 9.40312L77.4009 9.83313C76.9409 9.93313 76.4709 10.0531 75.9809 10.1731L75.1409 10.3831L74.3009 10.5831L72.7309 10.9831L68.8909 12.1031L67.5709 12.5431L66.5709 12.8731C65.9909 13.0631 65.3909 13.2631 64.8009 13.4831C60.8449 14.9352 57.0012 16.6765 53.3009 18.6931C49.2265 20.9276 45.3727 23.5426 41.7909 26.5031C40.0109 27.9731 38.3209 29.5031 36.7109 31.1531C37.1009 31.9531 37.5109 32.7431 37.9609 33.5331C38.9652 35.3501 40.0702 37.1095 41.2709 38.8031Z" fill="#0E3445"/>
<path d="M130.401 75.7531C130.037 70.7058 129.302 65.6922 128.201 60.7531C127.138 55.9517 125.673 51.2484 123.821 46.6931C122.65 43.796 121.314 40.9681 119.821 38.2231C119.101 36.9231 118.351 35.6331 117.571 34.3831L117.301 33.9531V126.403H117.391C118.161 125.343 118.981 124.223 119.821 123.033C122.601 119.093 125.691 114.443 128.631 109.403C128.831 108.153 129.031 106.913 129.211 105.673C129.921 100.773 130.401 95.8331 130.621 90.9831C130.859 85.9067 130.785 80.8205 130.401 75.7531Z" fill="#518FB0"/>
<path d="M119.79 19.7081C118.97 18.8081 118.13 17.9381 117.27 17.0781V27.6081C118.13 28.6081 118.97 29.6681 119.79 30.7181C120.14 31.1781 120.49 31.6381 120.79 32.1081C123.68 36.0296 126.229 40.1915 128.41 44.5481C130.747 49.2295 132.683 54.1002 134.2 59.1081C135.78 64.2756 136.973 69.5535 137.77 74.8981C138.33 78.5681 138.77 82.3081 138.98 86.0681C140.227 81.9737 140.907 77.7274 141 73.4481C140.9 53.5124 133.333 34.3378 119.79 19.7081Z" fill="#518FB0"/>
<path d="M432.6 40.7662C432.587 39.1926 432.972 37.6412 433.72 36.2562C434.442 34.905 435.522 33.7776 436.84 32.9962C438.135 32.2117 439.62 31.7969 441.135 31.7969C442.649 31.7969 444.134 32.2117 445.43 32.9962C446.747 33.7805 447.822 34.9118 448.54 36.2662C449.277 37.6516 449.662 39.1969 449.662 40.7662C449.662 42.3356 449.277 43.8808 448.54 45.2662C447.834 46.632 446.774 47.7824 445.47 48.5962C444.161 49.4161 442.649 49.851 441.105 49.851C439.561 49.851 438.048 49.4161 436.74 48.5962C435.431 47.7907 434.364 46.6472 433.65 45.2862C432.928 43.8909 432.567 42.3369 432.6 40.7662ZM433.98 40.7662C433.982 42.1071 434.326 43.4253 434.98 44.5962C435.594 45.7311 436.498 46.6833 437.6 47.3562C438.683 48.0109 439.924 48.3569 441.19 48.3569C442.455 48.3569 443.697 48.0109 444.78 47.3562C445.875 46.6824 446.772 45.73 447.38 44.5962C447.997 43.4248 448.32 42.1205 448.32 40.7962C448.32 39.472 447.997 38.1677 447.38 36.9962C446.778 35.864 445.879 34.9169 444.78 34.2562C443.693 33.606 442.451 33.2626 441.185 33.2626C439.919 33.2626 438.676 33.606 437.59 34.2562C436.472 34.9089 435.555 35.8569 434.94 36.9962C434.313 38.1535 433.99 39.4504 434 40.7662H433.98ZM439.37 41.6762V45.7362H437.67V35.5262H441C442.015 35.4626 443.021 35.7407 443.86 36.3162C444.198 36.5897 444.465 36.9405 444.639 37.3391C444.813 37.7377 444.889 38.1723 444.86 38.6062C444.857 39.0934 444.709 39.5686 444.434 39.9711C444.16 40.3737 443.772 40.6853 443.32 40.8662C443.797 41.0615 444.198 41.4052 444.465 41.8465C444.731 42.2877 444.849 42.8031 444.8 43.3162V44.0562C444.773 44.561 444.841 45.0664 445 45.5462V45.7362H443.26C443.121 45.2353 443.063 44.7154 443.09 44.1962C443.117 43.7567 443.117 43.3158 443.09 42.8762C442.96 42.1062 442.44 41.7062 441.52 41.6762H439.37ZM439.37 40.1362H441.25C441.745 40.1405 442.23 39.9941 442.64 39.7162C442.802 39.6042 442.934 39.4548 443.027 39.2808C443.119 39.1068 443.168 38.9132 443.17 38.7162C443.194 38.4872 443.164 38.2556 443.082 38.0402C443.001 37.8248 442.87 37.6317 442.7 37.4762C442.193 37.1883 441.61 37.0627 441.03 37.1162H439.37V40.1362Z" fill="#5A504E"/>
</g>
<defs>
<clipPath id="clip0_200_6">
<rect width="550.66" height="149.25" fill="white"/>
</clipPath>
</defs>
</svg>
